<svg xmlns="http://www.w3.org/2000/svg" width="50%" height="100%" viewBox="0 0 100 100">
                    
            <g transform="rotate(5, 14, 47)">
                <rect x="1.5" y="34.5" width="25" height="25" stroke="crimson" fill="none"></rect>
                          
            </g>
                    
            <g transform="rotate(45, 22, 31)">
                <rect x="9.5" y="18.5" width="25" height="25" stroke="red" fill="none"></rect>
                          
            </g>
                    
            <g transform="rotate(-25, 24, 16.7)">
                <rect x="11.5" y="4.199999999999999" width="25" height="25" stroke="darkred" fill="none"></rect>
                          
            </g>
                    
            <g transform="rotate(-4, 43, 14)">
                <rect x="30.5" y="1.5" width="25" height="25" stroke="crimson" fill="none"></rect>
                          
            </g>
                    
            <g transform="rotate(-6, 57, 37)">
                <rect x="44.5" y="24.5" width="25" height="25" stroke="red" fill="none"></rect>
                          
            </g>
                    
            <g transform="rotate(3, 67, 59)">
                <rect x="54.5" y="46.5" width="25" height="25" stroke="darkred" fill="none"></rect>
                          
            </g>
                    
            <g transform="rotate(-18, 55, 63.5)">
                <rect x="42.5" y="51" width="25" height="25" stroke="darkred" fill="none"></rect>
                          
            </g>
                    
            <g transform="rotate(-46, 66, 81.2)">
                <rect x="53.5" y="68.7" width="25" height="25" stroke="crimson" fill="none"></rect>
                          
            </g>
                    
            <g transform="rotate(16, 80, 83.5)">
                <rect x="67.5" y="71" width="25" height="25" stroke="red" fill="none"></rect>
                          
            </g>
                </svg>